<?xml version="1.0" standalone="no"?><!-- Generator: Gravit.io --><svg xmlns="http://www.w3.org/2000/svg" xmlns:xlink="http://www.w3.org/1999/xlink" style="isolation:isolate" viewBox="418.862 348.862 762.276 762.276" width="762.276" height="762.276"><path d=" M 420 730 C 420 520.272 590.272 350 800 350 C 1009.728 350 1180 520.272 1180 730 C 1180 939.728 1009.728 1110 800 1110 C 590.272 1110 420 939.728 420 730 Z  M 800.001 782.386 L 970.001 592.386 L 970.001 512.386 L 800.001 682.386 L 630.001 512.386 L 630.001 592.387 L 800.001 782.386 M 940.002 922.387 L 830.001 812.386 L 870.001 772.386 L 1020.001 922.386 L 940.002 922.387 M 690.001 712.386 L 690.001 922.386 L 630.001 922.387 L 630.001 652.386 L 690.001 712.386 M 800.001 782.386 Z " fill-rule="evenodd" fill="rgb(0,0,0)" vector-effect="non-scaling-stroke" stroke-width="0.759" stroke="rgb(0,0,0)" stroke-linejoin="miter" stroke-linecap="square" stroke-miterlimit="3"/></svg>